<svg width="16" height="16" viewBox="0 0 16 16" fill="none" xmlns="http://www.w3.org/2000/svg">
<path d="M13.5 2H12V0.375C12 0.1875 11.8125 0 11.625 0H11.375C11.1562 0 11 0.1875 11 0.375V2H5V0.375C5 0.1875 4.8125 0 4.625 0H4.375C4.15625 0 4 0.1875 4 0.375V2H2.5C1.65625 2 1 2.6875 1 3.5V14.5C1 15.3438 1.65625 16 2.5 16H13.5C14.3125 16 15 15.3438 15 14.5V3.5C15 2.6875 14.3125 2 13.5 2ZM2.5 3H13.5C13.75 3 14 3.25 14 3.5V5H2V3.5C2 3.25 2.21875 3 2.5 3ZM13.5 15H2.5C2.21875 15 2 14.7812 2 14.5V6H14V14.5C14 14.7812 13.75 15 13.5 15ZM5.625 10C5.8125 10 6 9.84375 6 9.625V8.375C6 8.1875 5.8125 8 5.625 8H4.375C4.15625 8 4 8.1875 4 8.375V9.625C4 9.84375 4.15625 10 4.375 10H5.625ZM8.625 10C8.8125 10 9 9.84375 9 9.625V8.375C9 8.1875 8.8125 8 8.625 8H7.375C7.15625 8 7 8.1875 7 8.375V9.625C7 9.84375 7.15625 10 7.375 10H8.625ZM11.625 10C11.8125 10 12 9.84375 12 9.625V8.375C12 8.1875 11.8125 8 11.625 8H10.375C10.1562 8 10 8.1875 10 8.375V9.625C10 9.84375 10.1562 10 10.375 10H11.625ZM8.625 13C8.8125 13 9 12.8438 9 12.625V11.375C9 11.1875 8.8125 11 8.625 11H7.375C7.15625 11 7 11.1875 7 11.375V12.625C7 12.8438 7.15625 13 7.375 13H8.625ZM5.625 13C5.8125 13 6 12.8438 6 12.625V11.375C6 11.1875 5.8125 11 5.625 11H4.375C4.15625 11 4 11.1875 4 11.375V12.625C4 12.8438 4.15625 13 4.375 13H5.625ZM11.625 13C11.8125 13 12 12.8438 12 12.625V11.375C12 11.1875 11.8125 11 11.625 11H10.375C10.1562 11 10 11.1875 10 11.375V12.625C10 12.8438 10.1562 13 10.375 13H11.625Z" fill="#C4C4C4"/>
</svg>
