<svg width="20" height="20" viewBox="0 0 20 20" fill="none" xmlns="http://www.w3.org/2000/svg">
<path d="M18.2188 11.75C17.25 10.9375 16.0625 11.25 15.4688 11.7188L13.5938 13.125H13.4688C13.4688 11.9375 12.5312 11 11.3125 11H6.8125C5.9375 11 5.0625 11.3125 4.375 11.8438L3.46875 12.5H1.5C1.21875 12.5 1 12.75 1 13V13.5C1 13.7812 1.21875 14 1.5 14H4L5.28125 13.0312C5.71875 12.6875 6.25 12.5 6.8125 12.5H11.3125C12.1875 12.5 12.2188 13.7812 11.2812 13.7812H9.40625C9.1875 13.7812 9 13.9688 9 14.1875V14.2188C9 14.4375 9.1875 14.625 9.40625 14.625H13.625C13.9375 14.625 14.2188 14.5312 14.4688 14.3438L16.375 12.9062C16.625 12.7188 17.0312 12.7188 17.25 12.9062C17.5938 13.1875 17.5625 13.625 17.25 13.875L14.0938 16.2188C13.8438 16.4062 13.5625 16.5 13.25 16.5H1.5C1.21875 16.5 1 16.75 1 17V17.5C1 17.7812 1.21875 18 1.5 18H13.25C13.875 18 14.5 17.8125 15 17.4375L18.125 15.0625C18.6562 14.6875 18.9688 14.0938 18.9688 13.4375C19 12.8125 18.7188 12.1875 18.2188 11.75ZM4.5 10H15.5C15.7812 10 16 9.78125 16 9.5V2.5C16 2.25 15.7812 2 15.5 2H4.5C4.21875 2 4 2.25 4 2.5V9.5C4 9.78125 4.21875 10 4.5 10ZM5.5 3.5H8V7L10 6L12 7V3.5H14.5V8.5H5.5V3.5Z" fill="#313640"/>
</svg>
