<svg width="16" height="16" viewBox="0 0 16 16" fill="none" xmlns="http://www.w3.org/2000/svg">
<path d="M12.875 7.28125C13.0312 7.125 13.0312 6.875 12.875 6.75L12.25 6.125C12.125 5.96875 11.875 5.96875 11.7188 6.125L8.78125 9.15625V1.375C8.78125 1.1875 8.625 1 8.40625 1H7.53125C7.34375 1 7.15625 1.1875 7.15625 1.375V9.15625L4.25 6.125C4.09375 5.96875 3.84375 5.96875 3.71875 6.125L3.09375 6.75C2.9375 6.875 2.9375 7.125 3.09375 7.28125L7.71875 11.9062C7.875 12.0625 8.09375 12.0625 8.25 11.9062L12.875 7.28125ZM13.625 13.375H2.375C2.15625 13.375 2 13.5625 2 13.75V14.625C2 14.8438 2.15625 15 2.375 15H13.625C13.8125 15 14 14.8438 14 14.625V13.75C14 13.5625 13.8125 13.375 13.625 13.375Z" fill="#EE5E20"/>
</svg>
