<svg width="20" height="17" viewBox="0 0 20 17" fill="none" xmlns="http://www.w3.org/2000/svg">
<path d="M19.5 12H19V8.375C19 7.78125 18.75 7.21875 18.3125 6.78125L15.7188 4.1875C15.2812 3.75 14.7188 3.5 14.125 3.5H13V2.25C13 1.3125 12.1875 0.5 11.25 0.5H1.75C0.78125 0.5 0 1.3125 0 2.25V11.75C0 12.7188 0.78125 13.5 1.75 13.5H2C2 15.1562 3.34375 16.5 5 16.5C6.65625 16.5 8 15.1562 8 13.5H12C12 15.1562 13.3438 16.5 15 16.5C16.6562 16.5 18 15.1562 18 13.5H19.5C19.75 13.5 20 13.2812 20 13V12.5C20 12.25 19.75 12 19.5 12ZM5 15C4.15625 15 3.5 14.3438 3.5 13.5C3.5 12.6875 4.15625 12 5 12C5.8125 12 6.5 12.6875 6.5 13.5C6.5 14.3438 5.8125 15 5 15ZM11.5 12H7.5625C7.0625 11.125 6.09375 10.5 5 10.5C3.875 10.5 2.90625 11.125 2.40625 12H1.75C1.59375 12 1.5 11.9062 1.5 11.75V2.25C1.5 2.125 1.59375 2 1.75 2H11.25C11.375 2 11.5 2.125 11.5 2.25V12ZM13 5H14.125C14.3125 5 14.5 5.09375 14.6562 5.21875L16.9375 7.5H13V5ZM15 15C14.1562 15 13.5 14.3438 13.5 13.5C13.5 12.6875 14.1562 12 15 12C15.8125 12 16.5 12.6875 16.5 13.5C16.5 14.3438 15.8125 15 15 15ZM17.5 11.875C16.9375 11.0625 16.0312 10.5 15 10.5C14.2188 10.5 13.5312 10.8125 13 11.2812V9H17.5V11.875Z" fill="#313640"/>
</svg>
