<svg width="12" height="11" viewBox="0 0 12 11" fill="none" xmlns="http://www.w3.org/2000/svg">
<path d="M7.125 8.3125H5.625C5.41406 8.3125 5.25 8.5 5.25 8.6875V9.0625C5.25 9.27344 5.41406 9.4375 5.625 9.4375H7.125C7.3125 9.4375 7.5 9.27344 7.5 9.0625V8.6875C7.5 8.5 7.3125 8.3125 7.125 8.3125ZM0.65625 2.5H1.6875V10.375C1.6875 10.5859 1.85156 10.75 2.0625 10.75H2.4375C2.625 10.75 2.8125 10.5859 2.8125 10.375V2.5H3.84375C3.98438 2.5 4.125 2.38281 4.125 2.21875C4.125 2.17188 4.07812 2.07812 4.03125 2.03125L2.4375 0.34375C2.39062 0.296875 2.29688 0.273438 2.25 0.273438C2.17969 0.273438 2.08594 0.296875 2.03906 0.34375L0.445312 2.03125C0.398438 2.07812 0.375 2.17188 0.375 2.21875C0.375 2.38281 0.492188 2.5 0.65625 2.5ZM10.125 3.8125H5.625C5.41406 3.8125 5.25 4 5.25 4.1875V4.5625C5.25 4.77344 5.41406 4.9375 5.625 4.9375H10.125C10.3125 4.9375 10.5 4.77344 10.5 4.5625V4.1875C10.5 4 10.3125 3.8125 10.125 3.8125ZM11.625 1.5625H5.625C5.41406 1.5625 5.25 1.75 5.25 1.9375V2.3125C5.25 2.52344 5.41406 2.6875 5.625 2.6875H11.625C11.8125 2.6875 12 2.52344 12 2.3125V1.9375C12 1.75 11.8125 1.5625 11.625 1.5625ZM8.625 6.0625H5.625C5.41406 6.0625 5.25 6.25 5.25 6.4375V6.8125C5.25 7.02344 5.41406 7.1875 5.625 7.1875H8.625C8.8125 7.1875 9 7.02344 9 6.8125V6.4375C9 6.25 8.8125 6.0625 8.625 6.0625Z" fill="#313640"/>
</svg>
