<svg width="20" height="15" viewBox="0 0 20 15" fill="none" xmlns="http://www.w3.org/2000/svg">
<path d="M1 9H11.5C12.0312 9 12.5 8.5625 12.5 8V1.5C12.5 0.96875 12.0312 0.5 11.5 0.5H1C0.4375 0.5 0 0.96875 0 1.5V8C0 8.5625 0.4375 9 1 9ZM1.5 2H11V7.5H1.5V2ZM19.4062 5.9375L17.5625 4.09375C17.1875 3.71875 16.6875 3.53125 16.1562 3.53125H14.5C13.9375 3.53125 13.5 3.96875 13.5 4.53125V10.0312H1C0.4375 10.0312 0 10.4688 0 11.0312V11.875C0 13.1562 0.875 14.3125 2.15625 14.5C3.09375 14.625 3.96875 14.1875 4.5 13.5C5.0625 14.2812 6.0625 14.7188 7.15625 14.4375C7.9375 14.2188 8.59375 13.625 8.84375 12.8438C9 12.375 9.03125 11.9375 8.9375 11.5312H14.0312C13.9688 11.9375 13.9688 12.375 14.125 12.8438C14.375 13.625 15.0625 14.25 15.875 14.4375C17.5 14.8438 19 13.5938 19 12.0312C19 11.8438 18.9688 11.6875 18.9375 11.5312H19.5C19.75 11.5312 20 11.2812 20 11.0312V7.34375C20 6.8125 19.7812 6.3125 19.4062 5.9375ZM2.5 13C1.9375 13 1.5 12.5625 1.5 12C1.5 11.4688 1.9375 11 2.5 11C3.03125 11 3.5 11.4688 3.5 12C3.5 12.5625 3.03125 13 2.5 13ZM6.5 13C5.9375 13 5.5 12.5625 5.5 12C5.5 11.4688 5.9375 11 6.5 11C7.03125 11 7.5 11.4688 7.5 12C7.5 12.5625 7.03125 13 6.5 13ZM15 5H16.1562C16.2812 5 16.4062 5.0625 16.5 5.15625L17.875 6.5H15V5ZM16.5 13C15.9375 13 15.5 12.5625 15.5 12C15.5 11.4688 15.9375 11 16.5 11C17.0312 11 17.5 11.4688 17.5 12C17.5 12.5625 17.0312 13 16.5 13ZM18.5 10H17.9688C17.5625 9.71875 17.0312 9.5 16.5 9.5C15.9375 9.5 15.4062 9.71875 15 10V7.5H18.5V10ZM4.25 3H3.25C3.09375 3 3 3.125 3 3.25V6.25C3 6.40625 3.09375 6.5 3.25 6.5H4.25C4.375 6.5 4.5 6.40625 4.5 6.25V3.25C4.5 3.125 4.375 3 4.25 3ZM9.25 3H8.25C8.09375 3 8 3.125 8 3.25V6.25C8 6.40625 8.09375 6.5 8.25 6.5H9.25C9.375 6.5 9.5 6.40625 9.5 6.25V3.25C9.5 3.125 9.375 3 9.25 3ZM6.75 3H5.75C5.59375 3 5.5 3.125 5.5 3.25V6.25C5.5 6.40625 5.59375 6.5 5.75 6.5H6.75C6.875 6.5 7 6.40625 7 6.25V3.25C7 3.125 6.875 3 6.75 3Z" fill="#313640"/>
</svg>
